<?xml version="1.0" standalone="no"?>
<!DOCTYPE svg PUBLIC "-//W3C//DTD SVG 20010904//EN"
 "http://www.w3.org/TR/2001/REC-SVG-20010904/DTD/svg10.dtd">
<svg version="1.0" xmlns="http://www.w3.org/2000/svg"
 width="935.000000pt" height="1280.000000pt" viewBox="0 0 935.000000 1280.000000"
 preserveAspectRatio="xMidYMid meet">
<metadata>
Created by potrace 1.15, written by Peter Selinger 2001-2017
</metadata>
<g transform="translate(0.000000,1280.000000) scale(0.100000,-0.100000)"
fill="#000000" stroke="none">
<path d="M3642 12783 c-46 -40 -281 -497 -392 -763 -39 -93 -72 -152 -128
-230 -103 -141 -260 -380 -329 -499 -141 -243 -277 -545 -350 -776 -19 -60
-79 -202 -133 -315 -106 -220 -140 -298 -200 -455 -84 -222 -159 -487 -195
-690 -11 -60 -45 -175 -85 -290 -158 -442 -254 -803 -311 -1175 -20 -124 -23
-185 -23 -425 0 -255 2 -290 23 -395 18 -86 26 -169 32 -330 7 -217 23 -346
58 -494 72 -298 202 -543 393 -740 48 -50 72 -85 87 -125 30 -81 106 -217 181
-323 81 -115 276 -313 393 -399 86 -63 89 -67 127 -152 82 -185 220 -352 376
-453 46 -30 86 -63 89 -74 15 -48 109 -172 186 -245 103 -99 223 -179 365
-246 60 -28 143 -77 184 -108 116 -87 271 -175 390 -222 l109 -43 -29 -36
c-169 -213 -427 -376 -722 -455 -415 -112 -926 -90 -1524 66 -420 108 -825
263 -1254 478 -311 156 -552 300 -839 500 -24 17 -54 31 -66 31 -24 0 -55 -29
-55 -51 0 -16 87 -277 144 -433 151 -410 290 -661 462 -832 l91 -91 23 -104
c64 -300 188 -511 370 -631 51 -33 59 -43 94 -125 143 -332 297 -509 472 -541
37 -6 55 -22 186 -167 323 -358 424 -439 524 -421 55 11 99 65 171 214 135
279 241 431 422 612 238 237 616 472 1018 633 l112 45 113 -14 c464 -58 1014
-61 1410 -8 115 15 117 15 137 -5 24 -24 41 -26 91 -11 45 14 153 29 162 23 4
-2 -19 -48 -52 -101 -66 -106 -74 -146 -39 -178 59 -53 248 38 315 152 21 35
26 58 27 117 1 39 0 87 -3 105 l-5 34 135 49 c541 197 998 547 1327 1017 274
391 455 811 613 1427 23 88 56 201 73 250 65 187 213 444 303 526 16 14 65 39
109 55 73 26 92 29 205 28 90 0 142 -5 185 -18 99 -29 111 -30 134 -7 68 68
-31 202 -233 315 -76 43 -84 50 -89 82 -10 62 -81 134 -132 134 -8 0 -52 32
-97 70 -107 93 -211 156 -311 191 -201 69 -361 41 -525 -91 -35 -28 -65 -50
-66 -48 -14 18 -198 594 -265 829 -363 1271 -385 2261 -70 3235 195 603 496
1146 971 1748 78 99 93 137 66 164 -34 34 -61 17 -365 -236 -660 -550 -1079
-949 -1431 -1359 -606 -707 -946 -1391 -1077 -2160 -62 -369 -61 -891 4 -1295
10 -60 17 -108 16 -108 -3 0 -418 450 -521 565 -616 685 -992 1264 -1249 1920
-257 656 -375 1339 -375 2170 0 493 33 889 122 1474 l32 213 -23 19 c-29 24
-43 24 -69 2z"/>
</g>
</svg>
